<?xml version="1.0" standalone="no"?><!DOCTYPE svg PUBLIC "-//W3C//DTD SVG 1.1//EN" "http://www.w3.org/Graphics/SVG/1.1/DTD/svg11.dtd"><svg t="1648443510179" class="icon" viewBox="0 0 1024 1024" version="1.1" xmlns="http://www.w3.org/2000/svg" p-id="6902" width="16" height="16" xmlns:xlink="http://www.w3.org/1999/xlink"><defs><style type="text/css">@font-face { font-family: feedback-iconfont; src: url("//at.alicdn.com/t/font_1031158_u69w8yhxdu.woff2?t=1630033759944") format("woff2"), url("//at.alicdn.com/t/font_1031158_u69w8yhxdu.woff?t=1630033759944") format("woff"), url("//at.alicdn.com/t/font_1031158_u69w8yhxdu.ttf?t=1630033759944") format("truetype"); }
</style></defs><path d="M512 900.8c-52.5 0-103.3-10.3-151.3-30.6-46.3-19.6-87.8-47.6-123.5-83.3-35.7-35.7-63.7-77.2-83.3-123.5-20.3-47.9-30.6-98.8-30.6-151.3s10.3-103.3 30.6-151.3c19.6-46.3 47.6-87.8 83.3-123.5 35.7-35.7 77.2-63.7 123.5-83.3 47.9-20.3 98.8-30.6 151.3-30.6s103.3 10.3 151.3 30.6c46.3 19.6 87.8 47.6 123.5 83.3s63.7 77.2 83.3 123.5c20.3 47.9 30.6 98.8 30.6 151.3 0 52.5-10.3 103.3-30.6 151.3-19.6 46.3-47.6 87.8-83.3 123.5s-77.2 63.7-123.5 83.3c-48 20.4-98.8 30.6-151.3 30.6z m0-713.2c-86.7 0-168.2 33.8-229.5 95.1-61.3 61.3-95.1 142.8-95.1 229.5 0 86.7 33.8 168.2 95.1 229.5 61.3 61.3 142.8 95.1 229.5 95.1 86.7 0 168.2-33.8 229.5-95.1 61.3-61.3 95.1-142.8 95.1-229.5 0-86.7-33.8-168.2-95.1-229.5-61.3-61.4-142.8-95.1-229.5-95.1z" p-id="6903" fill="#c5c5c5"></path><path d="M512 690.3c-98.2 0-178.1-79.9-178.1-178.1s79.9-178 178.1-178 178.1 79.8 178.1 178S610.2 690.3 512 690.3z m0-292.1c-62.9 0-114.1 51.2-114.1 114.1 0 62.9 51.2 114.1 114.1 114.1 62.9 0 114.1-51.2 114.1-114.1 0-63-51.2-114.1-114.1-114.1zM511 264c17.7 0 32-14.3 32-32V96c0-17.7-14.3-32-32-32s-32 14.3-32 32v136c0 17.7 14.3 32 32 32zM512 760.3c-17.7 0-32 14.3-32 32v136c0 17.7 14.3 32 32 32s32-14.3 32-32v-136c0-17.7-14.3-32-32-32z" p-id="6904" fill="#c5c5c5"></path><path d="M263.9 513.1c0-17.7-14.3-32-32-32h-136c-17.7 0-32 14.3-32 32s14.3 32 32 32h136c17.6 0 32-14.3 32-32zM760.1 512.1c0 17.7 14.3 32 32 32h136c17.7 0 32-14.3 32-32s-14.3-32-32-32h-136c-17.6 0-32 14.4-32 32z" p-id="6905" fill="#c5c5c5"></path></svg>